<svg id="Layer_1" data-name="Layer 1" xmlns="http://www.w3.org/2000/svg" viewBox="0 0 557.4 499.67"><defs><style>.cls-1{fill:#04884a;}.cls-2{fill:#50b748;}.cls-3{fill:#0069ae;}.cls-4{fill:#0092d4;}.cls-5{fill:#bcbcbc;}</style></defs><title>logo</title><polygon class="cls-1" points="278.7 177.13 179.95 86.18 278.7 0 278.7 177.13"/><polygon class="cls-2" points="278.7 221.91 179.95 308.09 179.95 86.19 278.7 177.13 278.7 221.91"/><polygon class="cls-3" points="278.7 177.13 377.45 86.18 278.7 0 278.7 177.13"/><polygon class="cls-4" points="278.7 221.91 377.45 308.09 377.45 86.19 278.7 177.13 278.7 221.91"/><rect class="cls-5" y="366.78" width="12.11" height="58.68"/><polygon class="cls-5" points="98.98 366.77 42.48 366.77 42.48 377.55 64.66 377.55 64.66 425.46 76.78 425.46 76.78 377.55 98.98 377.55 98.98 366.77"/><polygon class="cls-5" points="326.06 366.77 269.56 366.77 269.56 377.55 291.76 377.55 291.76 425.46 303.87 425.46 303.87 377.55 326.06 377.55 326.06 366.77"/><rect class="cls-5" x="545.28" y="366.78" width="12.12" height="58.68"/><polygon class="cls-5" points="405.99 366.77 405.99 388.94 368.67 388.94 368.67 366.77 356.55 366.77 356.55 425.46 368.67 425.46 368.67 399.7 405.99 399.7 405.99 425.46 418.12 425.46 418.12 366.77 405.99 366.77"/><polygon class="cls-5" points="223.23 414.69 223.23 366.77 211.12 366.77 211.12 425.46 259.15 425.46 259.15 414.69 223.23 414.69"/><polygon class="cls-5" points="481.89 381.57 503.86 425.46 517.5 425.46 487.19 366.77 476.58 366.77 446.28 425.46 459.92 425.46 481.89 381.57"/><polygon class="cls-5" points="147.61 381.57 169.59 425.46 183.22 425.46 152.91 366.77 142.31 366.77 111.99 425.46 125.64 425.46 147.61 381.57"/><polygon class="cls-5" points="87.53 463.92 63.04 463.92 63.04 477.27 84.94 477.27 84.94 481.3 63.04 481.3 63.04 494.97 87.82 494.97 87.82 498.99 58.51 498.99 58.51 459.9 87.53 459.9 87.53 463.92"/><polygon class="cls-5" points="129.93 459.9 134.36 459.9 134.36 498.99 130.74 498.99 104.8 466.93 104.8 498.99 100.39 498.99 100.39 459.9 104.63 459.9 129.93 491.23 129.93 459.9"/><path class="cls-5" d="M169.11,529.84c-12.62,0-20.41-8.94-20.41-20.17,0-10.78,8.07-20.29,20.12-20.29,6.78,0,11,1.9,15,5.2l-2.93,3.35a17.27,17.27,0,0,0-12.23-4.47c-8.89,0-15.25,7.32-15.25,16.1,0,9.38,6.15,16.3,15.88,16.3a19.33,19.33,0,0,0,11.6-3.9v-9.73H168.64v-4h16.59v15.58a24.68,24.68,0,0,1-16.12,6" transform="translate(-1.3 -30.16)"/><rect class="cls-5" x="198" y="459.9" width="4.52" height="39.1"/><polygon class="cls-5" points="247.28 459.9 251.69 459.9 251.69 498.99 248.08 498.99 222.14 466.93 222.14 498.99 217.74 498.99 217.74 459.9 221.98 459.9 247.28 491.23 247.28 459.9"/><polygon class="cls-5" points="295.54 463.92 271.05 463.92 271.05 477.27 292.96 477.27 292.96 481.3 271.05 481.3 271.05 494.97 295.83 494.97 295.83 498.99 266.5 498.99 266.5 459.9 295.54 459.9 295.54 463.92"/><polygon class="cls-5" points="337.44 463.92 312.93 463.92 312.93 477.27 334.85 477.27 334.85 481.3 312.93 481.3 312.93 494.97 337.71 494.97 337.71 498.99 308.4 498.99 308.4 459.9 337.44 459.9 337.44 463.92"/><path class="cls-5" d="M379.25,529.16,367.59,514H356.12v15.19h-4.53V490.05h17.27c8.85,0,14.51,4.64,14.51,11.69,0,6.53-4.58,10.33-10.9,11.45l12.33,16Zm-10.73-35h-12.4V510h12.34c6,0,10.33-3,10.33-8.1,0-4.85-3.8-7.76-10.27-7.76" transform="translate(-1.3 -30.16)"/><rect class="cls-5" x="395.62" y="459.9" width="4.54" height="39.1"/><polygon class="cls-5" points="444.9 459.9 449.3 459.9 449.3 498.99 445.7 498.99 419.77 466.93 419.77 498.99 415.36 498.99 415.36 459.9 419.62 459.9 444.9 491.23 444.9 459.9"/><path class="cls-5" d="M484.08,529.84c-12.63,0-20.41-8.94-20.41-20.17,0-10.78,8.08-20.29,20.12-20.29,6.76,0,11,1.9,15,5.2l-2.92,3.35a17.25,17.25,0,0,0-12.21-4.47c-8.89,0-15.27,7.32-15.27,16.1,0,9.38,6.14,16.3,15.9,16.3a19.27,19.27,0,0,0,11.58-3.9v-9.73H483.63v-4H500.2v15.58a24.68,24.68,0,0,1-16.12,6" transform="translate(-1.3 -30.16)"/></svg>