<svg id="Layer_1" data-name="Layer 1" xmlns="http://www.w3.org/2000/svg" viewBox="0 0 557.26 499.57"><defs><style>.cls-1{fill:#fff;}</style></defs><title>w-ite</title><rect class="cls-1" y="366.71" width="12.18" height="58.72"/><polygon class="cls-1" points="98.94 366.71 42.43 366.71 42.43 377.43 64.59 377.43 64.59 425.29 76.78 425.29 76.78 377.43 98.94 377.43 98.94 366.71"/><polygon class="cls-1" points="325.9 366.71 269.53 366.71 269.53 377.43 291.7 377.43 291.7 425.29 303.73 425.29 303.73 377.43 325.9 377.43 325.9 366.71"/><rect class="cls-1" x="545.08" y="366.71" width="12.18" height="58.72"/><polygon class="cls-1" points="405.91 366.71 405.91 388.88 368.47 388.88 368.47 366.71 356.44 366.71 356.44 425.29 368.47 425.29 368.47 399.6 405.91 399.6 405.91 425.29 417.95 425.29 417.95 366.71 405.91 366.71"/><polygon class="cls-1" points="223.14 414.57 223.14 366.71 211.1 366.71 211.1 425.29 259.11 425.29 259.11 414.57 223.14 414.57"/><polygon class="cls-1" points="481.81 381.39 503.68 425.29 517.33 425.29 487.09 366.71 476.37 366.71 446.13 425.29 459.78 425.29 481.81 381.39"/><polygon class="cls-1" points="147.54 381.39 169.56 425.29 183.21 425.29 152.82 366.71 142.25 366.71 112.01 425.29 125.66 425.29 147.54 381.39"/><polygon class="cls-1" points="87.49 463.75 62.98 463.75 62.98 477.11 84.85 477.11 84.85 481.22 62.98 481.22 62.98 494.87 87.79 494.87 87.79 498.83 58.57 498.83 58.57 459.78 87.49 459.78 87.49 463.75"/><polygon class="cls-1" points="129.92 459.78 134.32 459.78 134.32 498.83 130.65 498.83 104.82 466.83 104.82 498.83 100.41 498.83 100.41 459.78 104.67 459.78 129.92 491.05 129.92 459.78"/><path class="cls-1" d="M169.16,516.26c-12.62,0-20.4-8.95-20.4-20.26,0-10.71,8.07-20.26,20.11-20.26,6.75,0,11,1.91,15,5.14l-2.93,3.38a17.32,17.32,0,0,0-12.19-4.41c-8.95,0-15.26,7.34-15.26,16.15,0,9.4,6.16,16.3,15.85,16.3a19.27,19.27,0,0,0,11.6-4v-9.69H168.72v-4h16.59v15.56a25.05,25.05,0,0,1-16.15,6" transform="translate(-1.37 -16.69)"/><rect class="cls-1" x="197.89" y="459.78" width="4.55" height="39.05"/><polygon class="cls-1" points="247.22 459.78 251.62 459.78 251.62 498.83 247.95 498.83 222.11 466.83 222.11 498.83 217.71 498.83 217.71 459.78 221.97 459.78 247.22 491.05 247.22 459.78"/><polygon class="cls-1" points="295.51 463.75 271 463.75 271 477.11 292.87 477.11 292.87 481.22 271 481.22 271 494.87 295.66 494.87 295.66 498.83 266.45 498.83 266.45 459.78 295.51 459.78 295.51 463.75"/><polygon class="cls-1" points="337.35 463.75 312.83 463.75 312.83 477.11 334.71 477.11 334.71 481.22 312.83 481.22 312.83 494.87 337.64 494.87 337.64 498.83 308.28 498.83 308.28 459.78 337.35 459.78 337.35 463.75"/><path class="cls-1" d="M379.24,515.53l-11.6-15.27H356.19v15.27h-4.55v-39H369c8.81,0,14.54,4.69,14.54,11.59,0,6.46-4.56,10.28-10.87,11.45l12.33,16Zm-10.72-34.94H356.19v15.85h12.18c6,0,10.28-3.08,10.28-8.07.15-5-3.67-7.78-10.13-7.78" transform="translate(-1.37 -16.69)"/><rect class="cls-1" x="395.48" y="459.78" width="4.55" height="39.05"/><polygon class="cls-1" points="444.81 459.78 449.21 459.78 449.21 498.83 445.54 498.83 419.56 466.83 419.56 498.83 415.3 498.83 415.3 459.78 419.41 459.78 444.81 491.05 444.81 459.78"/><path class="cls-1" d="M484.05,516.26c-12.62,0-20.4-8.95-20.4-20.26,0-10.71,8.07-20.26,20.11-20.26,6.75,0,11,1.91,15,5.14l-2.94,3.38a17.32,17.32,0,0,0-12.19-4.41c-8.8,0-15.26,7.34-15.26,16.15,0,9.4,6.16,16.3,15.85,16.3a19.27,19.27,0,0,0,11.6-4v-9.69H483.61v-4H500.2v15.56a25.05,25.05,0,0,1-16.15,6" transform="translate(-1.37 -16.69)"/><polygon class="cls-1" points="272.02 171.02 272.02 0 179.83 86.17 272.02 171.02"/><polygon class="cls-1" points="179.83 103.94 179.83 307.99 272.02 227.54 272.02 188.79 179.83 103.94"/><polygon class="cls-1" points="285.09 171.02 285.09 0 377.28 86.17 285.09 171.02"/><polygon class="cls-1" points="377.28 103.94 377.28 307.99 285.09 227.54 285.09 188.79 377.28 103.94"/></svg>